<?xml version="1.0" encoding="UTF-8"?>
<!DOCTYPE score-partwise PUBLIC "-//Recordare//DTD MusicXML 1.1 Partwise//EN" "http://www.musicxml.org/dtds/partwise.dtd">
<score-partwise version="1.1">
  <work>
    <work-title>Noch ohne Titel</work-title>
  </work>
  <movement-title>    Noch ohne Untertitel  </movement-title>
  <identification>
    <rights>Copyright (c) xxxx Die Inhaber des Copyright</rights>
    <encoding>
      <software>Rosegarden v15.12</software>
      <encoding-date>2018-04-17</encoding-date>
    </encoding>
  </identification>
  <part-list>
    <score-part id="P2">
      <part-name>Len</part-name>
      <score-instrument id="P2-I2001">
        <instrument-name>P2</instrument-name>
      </score-instrument>
      <midi-instrument id="P2-I2001">
        <midi-channel>2</midi-channel>
        <midi-program>66</midi-program>
      </midi-instrument>
    </score-part>
  </part-list>
  <part id="P2">
    <measure number="1">
      <attributes>
        <divisions>960</divisions>
        <key>
          <fifths>-1</fifths>
          <mode>minor</mode>
        </key>
        <time>
          <beats>3</beats>
          <beat-type>4</beat-type>
        </time>
        <clef>
          <sign>F</sign>
          <line>4</line>
        </clef>
      </attributes>
      <note>
        <pitch>
          <step>D</step>
          <octave>3</octave>
        </pitch>
        <duration>1920</duration>
        <voice>1</voice>
        <type>half</type>
        <lyric number="1">
          <syllabic>single</syllabic>
          <text>Are</text>
        </lyric>
      </note>
      <note>
        <pitch>
          <step>D</step>
          <octave>3</octave>
        </pitch>
        <duration>960</duration>
        <voice>1</voice>
        <type>quarter</type>
        <notations>
          <articulations>
            <tenuto/>
          </articulations>
        </notations>
        <lyric number="1">
          <syllabic>single</syllabic>
          <text>you</text>
        </lyric>
      </note>
    </measure>
    <measure number="2">
      <note>
        <pitch>
          <step>A</step>
          <octave>3</octave>
        </pitch>
        <duration>1920</duration>
        <voice>1</voice>
        <type>half</type>
        <lyric number="1">
          <syllabic>single</syllabic>
          <text>going</text>
        </lyric>
      </note>
      <note>
        <pitch>
          <step>A</step>
          <octave>3</octave>
        </pitch>
        <duration>960</duration>
        <voice>1</voice>
        <type>quarter</type>
        <notations>
          <articulations>
            <tenuto/>
          </articulations>
        </notations>
        <lyric number="1">
          <syllabic>single</syllabic>
          <text>to</text>
        </lyric>
      </note>
    </measure>
    <measure number="3">
      <note>
        <pitch>
          <step>E</step>
          <octave>3</octave>
        </pitch>
        <duration>1440</duration>
        <voice>1</voice>
        <type>quarter</type>
        <dot/>
        <notations>
          <articulations>
            <tenuto/>
          </articulations>
        </notations>
        <lyric number="1">
          <syllabic>begin</syllabic>
          <text>Scar</text>
        </lyric>
      </note>
      <note>
        <pitch>
          <step>F</step>
          <octave>3</octave>
        </pitch>
        <duration>480</duration>
        <voice>1</voice>
        <type>eighth</type>
        <notations>
          <articulations>
            <tenuto/>
          </articulations>
        </notations>
        <lyric number="1">
          <syllabic>middle</syllabic>
          <text>bor</text>
        </lyric>
      </note>
      <note>
        <pitch>
          <step>E</step>
          <octave>3</octave>
        </pitch>
        <duration>960</duration>
        <voice>1</voice>
        <type>quarter</type>
        <notations>
          <articulations>
            <tenuto/>
          </articulations>
        </notations>
        <lyric number="1">
          <syllabic>end</syllabic>
          <text>ough</text>
        </lyric>
      </note>
    </measure>
    <measure number="4">
      <note>
        <pitch>
          <step>D</step>
          <octave>3</octave>
        </pitch>
        <duration>2880</duration>
        <voice>1</voice>
        <type>half</type>
        <dot/>
        <lyric number="1">
          <syllabic>single</syllabic>
          <text>Fair?</text>
        </lyric>
      </note>
    </measure>
    <measure number="5">
      <note>
        <rest/>
        <duration>960</duration>
        <voice>1</voice>
        <type>quarter</type>
      </note>
      <note>
        <pitch>
          <step>A</step>
          <octave>3</octave>
        </pitch>
        <duration>960</duration>
        <voice>1</voice>
        <type>quarter</type>
        <notations>
          <articulations>
            <tenuto/>
          </articulations>
        </notations>
        <lyric number="1">
          <syllabic>single</syllabic>
          <text>Parsley,</text>
        </lyric>
      </note>
      <note>
        <pitch>
          <step>C</step>
          <octave>4</octave>
        </pitch>
        <duration>960</duration>
        <voice>1</voice>
        <type>quarter</type>
        <notations>
          <articulations>
            <tenuto/>
          </articulations>
        </notations>
        <lyric number="1">
          <syllabic>single</syllabic>
          <text>sage,</text>
        </lyric>
      </note>
    </measure>
    <measure number="6">
      <note>
        <pitch>
          <step>D</step>
          <octave>4</octave>
        </pitch>
        <duration>1920</duration>
        <voice>1</voice>
        <type>half</type>
        <notations>
          <articulations>
            <tenuto/>
          </articulations>
        </notations>
        <lyric number="1">
          <syllabic>begin</syllabic>
          <text>rose</text>
        </lyric>
      </note>
      <note>
        <pitch>
          <step>C</step>
          <octave>4</octave>
        </pitch>
        <duration>960</duration>
        <voice>1</voice>
        <type>quarter</type>
        <notations>
          <articulations>
            <tenuto/>
          </articulations>
        </notations>
        <lyric number="1">
          <syllabic>end</syllabic>
          <text>mary</text>
        </lyric>
      </note>
    </measure>
    <measure number="7">
      <note>
        <pitch>
          <step>A</step>
          <octave>3</octave>
        </pitch>
        <duration>960</duration>
        <voice>1</voice>
        <type>quarter</type>
        <notations>
          <articulations>
            <tenuto/>
          </articulations>
        </notations>
        <lyric number="1">
          <syllabic>single</syllabic>
          <text>and</text>
        </lyric>
      </note>
      <note>
        <pitch>
          <step>B</step>
          <octave>3</octave>
        </pitch>
        <duration>960</duration>
        <voice>1</voice>
        <type>quarter</type>
        <accidental>natural</accidental>
        <notations>
          <articulations>
            <tenuto/>
          </articulations>
        </notations>
        <lyric number="1">
          <syllabic>single</syllabic>
          <text>thyme</text>
        </lyric>
      </note>
      <note>
        <pitch>
          <step>G</step>
          <octave>3</octave>
        </pitch>
        <duration>960</duration>
        <voice>1</voice>
        <type>quarter</type>
        <notations>
          <articulations>
            <tenuto/>
          </articulations>
        </notations>
        <lyric number="1">
          <syllabic>begin</syllabic>
          <text>Re</text>
        </lyric>
      </note>
    </measure>
    <measure number="8">
      <note>
        <pitch>
          <step>A</step>
          <octave>3</octave>
        </pitch>
        <duration>2880</duration>
        <voice>1</voice>
        <type>half</type>
        <dot/>
        <lyric number="1">
          <syllabic>middle</syllabic>
          <text>mem</text>
        </lyric>
      </note>
    </measure>
    <measure number="9">
      <note>
        <pitch>
          <step>D</step>
          <octave>4</octave>
        </pitch>
        <duration>1920</duration>
        <voice>1</voice>
        <type>half</type>
        <lyric number="1">
          <syllabic>end</syllabic>
          <text>ber</text>
        </lyric>
      </note>
      <note>
        <pitch>
          <step>D</step>
          <octave>4</octave>
        </pitch>
        <duration>960</duration>
        <voice>1</voice>
        <type>quarter</type>
        <notations>
          <articulations>
            <tenuto/>
          </articulations>
        </notations>
        <lyric number="1">
          <syllabic>single</syllabic>
          <text>me</text>
        </lyric>
      </note>
    </measure>
    <measure number="10">
      <note>
        <pitch>
          <step>C</step>
          <octave>4</octave>
        </pitch>
        <duration>1920</duration>
        <voice>1</voice>
        <type>half</type>
        <notations>
          <articulations>
            <tenuto/>
          </articulations>
        </notations>
        <lyric number="1">
          <syllabic>single</syllabic>
          <text>to</text>
        </lyric>
      </note>
      <note>
        <pitch>
          <step>A</step>
          <octave>3</octave>
        </pitch>
        <duration>960</duration>
        <voice>1</voice>
        <type>quarter</type>
        <lyric number="1">
          <syllabic>single</syllabic>
          <text>one</text>
        </lyric>
      </note>
    </measure>
    <measure number="11">
      <note>
        <pitch>
          <step>A</step>
          <octave>3</octave>
        </pitch>
        <duration>960</duration>
        <voice>1</voice>
        <type>quarter</type>
        <notations>
          <articulations>
            <tenuto/>
          </articulations>
        </notations>
        <lyric number="1">
          <syllabic>single</syllabic>
          <text>who</text>
        </lyric>
      </note>
      <note>
        <pitch>
          <step>G</step>
          <octave>3</octave>
        </pitch>
        <duration>960</duration>
        <voice>1</voice>
        <type>quarter</type>
        <notations>
          <articulations>
            <tenuto/>
          </articulations>
        </notations>
        <lyric number="1">
          <syllabic>single</syllabic>
          <text>lives</text>
        </lyric>
      </note>
      <note>
        <pitch>
          <step>F</step>
          <octave>3</octave>
        </pitch>
        <duration>960</duration>
        <voice>1</voice>
        <type>quarter</type>
        <notations>
          <articulations>
            <tenuto/>
          </articulations>
        </notations>
        <lyric number="1">
          <syllabic>single</syllabic>
          <text>there</text>
        </lyric>
      </note>
    </measure>
    <measure number="12">
      <note>
        <pitch>
          <step>E</step>
          <octave>3</octave>
        </pitch>
        <duration>2880</duration>
        <voice>1</voice>
        <type>half</type>
        <dot/>
        <lyric number="1">
          <syllabic>single</syllabic>
          <text>For</text>
        </lyric>
      </note>
    </measure>
    <measure number="13">
      <note>
        <pitch>
          <step>D</step>
          <octave>3</octave>
        </pitch>
        <duration>1920</duration>
        <voice>1</voice>
        <type>half</type>
        <notations>
          <articulations>
            <tenuto/>
          </articulations>
        </notations>
        <lyric number="1">
          <syllabic>single</syllabic>
          <text>she</text>
        </lyric>
      </note>
      <note>
        <pitch>
          <step>A</step>
          <octave>3</octave>
        </pitch>
        <duration>960</duration>
        <voice>1</voice>
        <type>quarter</type>
        <notations>
          <articulations>
            <tenuto/>
          </articulations>
        </notations>
        <lyric number="1">
          <syllabic>single</syllabic>
          <text>once</text>
        </lyric>
      </note>
    </measure>
    <measure number="14">
      <note>
        <pitch>
          <step>G</step>
          <octave>3</octave>
        </pitch>
        <duration>1920</duration>
        <voice>1</voice>
        <type>half</type>
        <notations>
          <articulations>
            <tenuto/>
          </articulations>
        </notations>
        <lyric number="1">
          <syllabic>single</syllabic>
          <text>was</text>
        </lyric>
      </note>
      <note>
        <pitch>
          <step>F</step>
          <octave>3</octave>
        </pitch>
        <duration>960</duration>
        <voice>1</voice>
        <type>quarter</type>
        <notations>
          <articulations>
            <tenuto/>
          </articulations>
        </notations>
        <lyric number="1">
          <syllabic>single</syllabic>
          <text>a</text>
        </lyric>
      </note>
    </measure>
    <measure number="15">
      <note>
        <pitch>
          <step>E</step>
          <octave>3</octave>
        </pitch>
        <duration>960</duration>
        <voice>1</voice>
        <type>quarter</type>
        <notations>
          <articulations>
            <tenuto/>
          </articulations>
        </notations>
        <lyric number="1">
          <syllabic>single</syllabic>
          <text>true</text>
        </lyric>
      </note>
      <note>
        <pitch>
          <step>D</step>
          <octave>3</octave>
        </pitch>
        <duration>960</duration>
        <voice>1</voice>
        <type>quarter</type>
        <notations>
          <articulations>
            <tenuto/>
          </articulations>
        </notations>
        <lyric number="1">
          <syllabic>single</syllabic>
          <text>love</text>
        </lyric>
      </note>
      <note>
        <pitch>
          <step>C</step>
          <octave>3</octave>
        </pitch>
        <duration>960</duration>
        <voice>1</voice>
        <type>quarter</type>
        <notations>
          <articulations>
            <tenuto/>
          </articulations>
        </notations>
        <lyric number="1">
          <syllabic>single</syllabic>
          <text>of</text>
        </lyric>
      </note>
    </measure>
    <measure number="16">
      <note>
        <pitch>
          <step>D</step>
          <octave>3</octave>
        </pitch>
        <duration>1920</duration>
        <voice>1</voice>
        <type>half</type>
        <notations>
          <articulations>
            <tenuto/>
          </articulations>
        </notations>
        <lyric number="1">
          <syllabic>single</syllabic>
          <text>mine</text>
        </lyric>
      </note>
      <note>
        <rest/>
        <duration>960</duration>
        <voice>1</voice>
        <type>quarter</type>
      </note>
    </measure>
    <measure number="17">
      <note>
        <rest measure="yes"/>
        <duration>2880</duration>
        <voice>1</voice>
        <type>half</type>
        <dot/>
      </note>
    </measure>
  </part>
</score-partwise>
